<svg width="40" height="40" viewBox="0 0 40 40" fill="none" xmlns="http://www.w3.org/2000/svg">
<path d="M20 40C31.0457 40 40 31.0457 40 20C40 8.9543 31.0457 0 20 0C8.9543 0 0 8.9543 0 20C0 31.0457 8.9543 40 20 40Z" fill="white"/>
<path d="M32.6436 8.92L32.5449 8.66953C32.542 8.66234 32.5364 8.65641 32.5293 8.6532L32.2842 8.54188C30.2661 7.62523 27.4194 7.39906 24.9008 7.29883H22.0641C22.0321 7.29883 22.0223 7.34211 22.0511 7.35594L27.878 10.1495C27.9109 10.1652 27.8927 10.2141 27.8574 10.2048C25.2368 9.52047 22.5895 9.17406 19.9754 9.17406C17.3697 9.17406 14.7309 9.51836 12.1184 10.1984C12.0829 10.2076 12.0648 10.1581 12.0982 10.1427L18.1295 7.35625C18.1587 7.34273 18.1492 7.29898 18.1169 7.29898H15.05C12.5315 7.39922 9.68466 7.62539 7.66661 8.54203L7.42145 8.65336C7.41434 8.65656 7.40872 8.66242 7.40591 8.66969L7.30716 8.92016C5.24184 14.1534 4.65497 23.0377 5.28083 28.6034L5.31364 28.8953L5.54583 29.0754C8.77223 31.5773 13.0864 32.8636 15.8004 33.2049L16.1513 33.2491C16.2654 33.2634 16.3743 33.1975 16.4147 33.0898L18.1811 28.3705C18.2361 28.2234 18.1424 28.0628 17.9872 28.0384L17.4452 27.9533C15.5551 27.6563 12.8772 26.8691 10.6142 24.8168C10.5659 24.773 10.6125 24.6942 10.6736 24.7169C10.8575 24.7852 11.0603 24.8645 11.2691 24.946C11.7808 25.1459 12.31 25.3527 12.6554 25.4347C15.0822 26.0117 17.5432 26.3044 19.9752 26.3044V26.2611H19.9803L19.9806 26.3044C22.4076 26.3044 24.8686 26.0118 27.2952 25.4347C27.6407 25.3526 28.1699 25.1459 28.6817 24.9459C28.8904 24.8644 29.0931 24.7852 29.2769 24.7169C29.338 24.6942 29.3846 24.773 29.3363 24.8168C27.0808 26.8601 24.3996 27.6452 22.5053 27.942L21.9634 28.0268C21.8082 28.0511 21.7143 28.2116 21.7693 28.3587L23.5361 33.0896C23.5763 33.1973 23.6854 33.2634 23.7994 33.249L24.1507 33.2048C26.8645 32.8635 31.1783 31.5772 34.4048 29.0753L34.637 28.8952L34.6698 28.6034C35.2957 23.0377 34.7089 14.1534 32.6436 8.92ZM14.21 21.7686C12.0161 21.9642 10.1857 20.134 10.3811 17.94C10.5309 16.2582 11.8851 14.9038 13.567 14.7538C15.761 14.5582 17.5914 16.3884 17.396 18.5824C17.2461 20.2642 15.8918 21.6186 14.21 21.7686ZM26.3839 21.7686C24.19 21.9642 22.3596 20.134 22.555 17.94C22.7048 16.2582 24.059 14.9038 25.7409 14.7538C27.9348 14.5582 29.7653 16.3884 29.5699 18.5824C29.42 20.2642 28.0657 21.6186 26.3839 21.7686Z" fill="black"/>
</svg>
