<svg width="40" height="40" viewBox="0 0 40 40" fill="none" xmlns="http://www.w3.org/2000/svg">
<path d="M20 40C31.0457 40 40 31.0457 40 20C40 8.9543 31.0457 0 20 0C8.9543 0 0 8.9543 0 20C0 31.0457 8.9543 40 20 40Z" fill="white"/>
<path d="M32.7257 8.62416L32.6265 8.37323C32.6236 8.36603 32.618 8.36008 32.6109 8.35687L32.3646 8.24534C30.3373 7.32701 27.4778 7.10042 24.9478 7H22.0982C22.066 7 22.0562 7.04336 22.0852 7.05721L27.9385 9.85588C27.9715 9.87161 27.9532 9.9206 27.9177 9.91137C25.2853 9.22573 22.626 8.87869 20 8.87869C17.3825 8.87869 14.7318 9.22362 12.1075 9.90487C12.0718 9.91411 12.0536 9.86456 12.0872 9.84915L18.1458 7.05753C18.1751 7.04399 18.1656 7.00016 18.1332 7.00016H15.0523C12.5224 7.10058 9.66271 7.32716 7.63552 8.24549L7.38926 8.35703C7.38212 8.36024 7.37646 8.36611 7.37364 8.37339L7.27444 8.62432C5.19978 13.8672 4.61024 22.7679 5.23894 28.3439L5.2719 28.6363L5.50514 28.8167C8.74616 31.3232 13.0798 32.6119 15.8061 32.9538L16.1586 32.998C16.2732 33.0124 16.3827 32.9464 16.4232 32.8385L18.1976 28.1105C18.2529 27.9632 18.1587 27.8022 18.0029 27.7778L17.4584 27.6925C15.5598 27.395 12.8697 26.6064 10.5964 24.5502C10.5479 24.5063 10.5947 24.4274 10.6561 24.4501C10.8408 24.5186 11.0446 24.598 11.2543 24.6797C11.7684 24.88 12.3 25.0871 12.6469 25.1693C15.0847 25.7474 17.5569 26.0406 19.9999 26.0406V25.9972H20.005L20.0053 26.0406C22.4433 26.0406 24.9154 25.7474 27.353 25.1693C27.7 25.087 28.2317 24.88 28.7458 24.6796C28.9554 24.5979 29.159 24.5185 29.3437 24.4501C29.4051 24.4274 29.4518 24.5064 29.4033 24.5502C27.1377 26.5973 24.4443 27.3839 22.5414 27.6812L21.9971 27.7662C21.8412 27.7905 21.7469 27.9513 21.8021 28.0986L23.5768 32.8383C23.6173 32.9462 23.7268 33.0124 23.8414 32.998L24.1942 32.9537C26.9204 32.6118 31.2537 31.3231 34.4948 28.8166L34.7281 28.6362L34.761 28.3438C35.3898 22.7679 34.8003 13.8672 32.7257 8.62416ZM14.2086 21.4964C12.0047 21.6924 10.166 19.8588 10.3623 17.6608C10.5128 15.9759 11.8731 14.619 13.5626 14.4687C15.7666 14.2727 17.6052 16.1064 17.409 18.3044C17.2584 19.9893 15.898 21.3461 14.2086 21.4964ZM26.4376 21.4964C24.2337 21.6924 22.395 19.8588 22.5913 17.6608C22.7418 15.9759 24.1022 14.619 25.7917 14.4687C27.9955 14.2727 29.8343 16.1064 29.638 18.3044C29.4874 19.9893 28.127 21.3461 26.4376 21.4964Z" fill="#989FEC"/>
</svg>
