<svg width="42" height="60" viewBox="0 0 42 60" fill="none" xmlns="http://www.w3.org/2000/svg">
<path d="M35.3164 57.3432H6.68346C6.18932 57.3432 5.78868 56.9391 5.78868 56.4407C5.78868 55.9424 6.18932 55.5383 6.68346 55.5383H35.3164C35.8105 55.5383 36.2111 55.9424 36.2111 56.4407C36.2111 56.9391 35.8105 57.3432 35.3164 57.3432Z" fill="#B00B0B"/>
<path fill-rule="evenodd" clip-rule="evenodd" d="M5.78868 49.221V53.8995C4.55705 54.337 3.81781 55.6066 4.03932 56.9048C4.26039 58.2029 5.37755 59.1508 6.68346 59.1481H35.3164C36.6223 59.1508 37.7394 58.2029 37.9609 56.9048C38.182 55.6066 37.4428 54.337 36.2111 53.8995V49.221C36.2085 46.73 34.2071 44.7117 31.7372 44.7087H31.0216L37.9854 6.06426C38.0439 5.74126 37.9238 5.41209 37.6721 5.2041C37.42 4.99611 37.0762 4.94279 36.7743 5.06397C36.6856 5.1001 27.8986 8.60995 20.9999 8.60995C14.1012 8.60995 5.31464 5.1001 5.22595 5.06397C4.92361 4.94279 4.57977 4.99611 4.32811 5.2041C4.07646 5.41209 3.95631 5.74126 4.01442 6.06426L10.9787 44.7087H10.2626C7.79319 44.7117 5.79174 46.73 5.78868 49.221ZM6.68346 57.3432H35.3164C35.8105 57.3432 36.2111 56.9391 36.2111 56.4407C36.2111 55.9424 35.8105 55.5383 35.3164 55.5383H6.68346C6.18932 55.5383 5.78868 55.9424 5.78868 56.4407C5.78868 56.9391 6.18932 57.3432 6.68346 57.3432ZM34.4216 53.7333V49.221C34.4216 47.7258 33.2201 46.5136 31.7372 46.5136H10.2626C8.78016 46.5136 7.57824 47.7258 7.57824 49.221V53.7333H34.4216ZM10.5051 12.5582L16.3766 44.7087H25.6232L31.4948 12.5582C28.0638 13.4501 24.5423 13.9424 20.9999 14.0248C17.4575 13.9424 13.9365 13.4501 10.5051 12.5582ZM20.9999 10.4149C15.432 10.4149 8.9357 8.33938 6.05738 7.30251L12.7992 44.7087H14.5578L8.48831 11.4808C8.43238 11.1724 8.53855 10.8569 8.76967 10.6471C9.00079 10.4374 9.32279 10.3633 9.6212 10.4519C13.3288 11.5051 17.1499 12.0986 20.9999 12.2198C24.8499 12.0986 28.6711 11.5051 32.3791 10.4519C32.677 10.3633 32.9995 10.4374 33.2306 10.6471C33.4613 10.8569 33.5679 11.1724 33.5115 11.4808L27.4425 44.7087H29.2006L35.9429 7.30251C33.0641 8.33938 26.5682 10.4149 20.9999 10.4149Z" fill="#B00B0B"/>
<path d="M16.3766 44.7087L10.5051 12.5582C13.9365 13.4501 17.4575 13.9424 20.9999 14.0248C24.5423 13.9424 28.0638 13.4501 31.4948 12.5582L25.6232 44.7087H16.3766Z" fill="#B00B0B"/>
<path d="M22.587 28.9258H19.4137C19.1216 28.9258 18.8848 29.2077 18.8848 29.5554C18.8848 29.9031 19.1216 30.185 19.4137 30.185H22.587C22.8791 30.185 23.1159 29.9031 23.1159 29.5554C23.1159 29.2077 22.8791 28.9258 22.587 28.9258Z" fill="white"/>
<path d="M22.587 25.1475H19.4137C19.1216 25.1475 18.8848 25.4294 18.8848 25.7771C18.8848 26.1248 19.1216 26.4067 19.4137 26.4067H22.587C22.8791 26.4067 23.1159 26.1248 23.1159 25.7771C23.1159 25.4294 22.8791 25.1475 22.587 25.1475Z" fill="white"/>
<path d="M20.8245 21.5136C21.9932 21.5136 22.9401 20.3859 22.9401 18.9951C22.9401 17.6042 21.9932 16.4766 20.8245 16.4766C19.6562 16.4766 18.709 17.6042 18.709 18.9951C18.709 20.3859 19.6562 21.5136 20.8245 21.5136ZM20.8245 18.1556C21.214 18.1556 21.5297 18.5315 21.5297 18.9951C21.5297 19.4587 21.214 19.8346 20.8245 19.8346C20.4351 19.8346 20.1194 19.4587 20.1194 18.9951C20.1194 18.5315 20.4351 18.1556 20.8245 18.1556Z" fill="white"/>
</svg>
