<svg width="42" height="60" viewBox="0 0 42 60" fill="none" xmlns="http://www.w3.org/2000/svg">
<g clip-path="url(#clip0)">
<path d="M35.3787 48.6879L26.7419 45.498L20.5484 47.5949L14.3549 45.4982L5.718 48.688C4.08625 49.2906 3 50.8656 3 52.629V59.1272C3 59.7061 3.46213 60.1756 4.03225 60.1756H37.0645C37.6346 60.1756 38.0967 59.7061 38.0967 59.1272V52.629C38.0967 50.8655 37.0106 49.2905 35.3787 48.6879Z" fill="#B00B0B"/>
<path d="M19.4655 49.6934L18.4824 60.177H22.6114L21.6283 49.6934H19.4655Z" fill="white"/>
<path d="M21.6304 51.1319H19.4629C19.0637 51.1319 18.7402 50.8033 18.7402 50.398V47.5947H22.3529V50.398C22.353 50.8032 22.0295 51.1319 21.6304 51.1319Z" fill="white"/>
<path d="M36.9828 49.7725C37.6798 50.5323 38.0939 51.5442 38.0939 52.6297V59.1279C38.0939 59.7069 37.6318 60.1763 37.0616 60.1763H31.9004V56.6713C31.9004 55.5591 32.3354 54.4924 33.1098 53.7061L36.9828 49.7725Z" fill="#C54848"/>
<path d="M31.9031 23.8794V15.0968C31.9031 13.9387 30.9787 13 29.8386 13H17.4515C12.8907 13 9.19336 16.755 9.19336 21.3872V23.8794C9.19336 25.0062 9.37224 26.1257 9.72311 27.1946L10.0667 28.2416C10.172 28.5623 10.2256 28.8981 10.2256 29.2362V29.7742H30.8707V29.2362C30.8707 28.8981 30.9244 28.5623 31.0296 28.2416L31.3732 27.1946C31.7242 26.1256 31.9031 25.0061 31.9031 23.8794Z" fill="#292929"/>
<path d="M14.3555 17.259C14.3555 19.6112 16.233 21.518 18.549 21.518H19.1296L19.4098 29.7741H30.8715V29.236C30.8715 28.898 30.9251 28.5622 31.0303 28.2415L31.374 27.1945C31.7248 26.1256 31.9037 25.0061 31.9037 23.8792V15.0968C31.9037 13.9387 30.9793 13 29.8392 13H18.549C16.233 13 14.3555 14.9068 14.3555 17.259Z" fill="#484747"/>
<path d="M26.741 38.1602H14.3535V47.5953H26.741V38.1602Z" fill="#E6AF78"/>
<path d="M14.3536 41.7052C16.1771 42.7781 18.2883 43.4021 20.5471 43.4021C22.806 43.4021 24.9173 42.7781 26.7406 41.7052V38.1602H14.3535L14.3536 41.7052Z" fill="#D29B6E"/>
<path d="M20.5471 47.5963L17.2548 50.9399C16.8123 51.3894 16.0809 51.3387 15.7027 50.8324L12.2891 46.2641L13.1819 44.3531C13.4454 43.7892 14.1327 43.5825 14.6559 43.9101L20.5471 47.5963Z" fill="#C54848"/>
<path d="M20.5469 47.5963L23.8391 50.9399C24.2816 51.3894 25.013 51.3387 25.3912 50.8324L28.8049 46.2641L27.912 44.3531C27.6485 43.7892 26.9612 43.5825 26.438 43.9101L20.5469 47.5963Z" fill="#C54848"/>
<path d="M20.5472 41.3058C14.8462 41.3058 10.2246 36.612 10.2246 30.8219V29.5936C10.2246 29.0375 10.4421 28.5042 10.8292 28.1109L11.6844 27.2424C12.0715 26.8493 12.289 26.3159 12.289 25.7597V23.2466C12.289 22.7611 12.61 22.3394 13.0751 22.2278C15.5165 21.6421 23.1136 20.2549 28.2837 24.1168C28.6195 24.3676 28.8051 24.7795 28.8051 25.2028V25.7597C28.8051 26.3158 29.0226 26.8491 29.4097 27.2424L30.2649 28.1109C30.652 28.5041 30.8695 29.0374 30.8695 29.5936V30.8219C30.8699 36.612 26.2482 41.3058 20.5472 41.3058Z" fill="#F0C087"/>
<path d="M28.2839 24.1161C24.6476 21.3999 19.8175 21.2823 16.4182 21.6542C14.9844 21.811 13.7996 22.0533 13.0754 22.227C12.6102 22.3386 12.2892 22.7603 12.2892 23.2458V25.7588C12.2892 26.315 12.0717 26.8483 11.6845 27.2416L10.8294 28.1101C10.4421 28.5034 10.2246 29.0368 10.2246 29.5929V30.8211C10.2246 36.1816 14.1884 40.5946 19.2999 41.2211C17.5187 39.3372 16.4181 36.7843 16.4181 33.9662V26.3032C16.4181 25.2407 17.196 24.3528 18.2339 24.2207C20.7111 23.9052 25.2484 23.7155 28.8051 25.7591V25.202C28.8054 24.7788 28.6194 24.3667 28.2839 24.1161Z" fill="#E6AF78"/>
<path d="M4.11112 49.7725C3.41412 50.5323 3 51.5442 3 52.6297V59.1279C3 59.7069 3.46212 60.1763 4.03225 60.1763H9.19349V56.6713C9.19349 55.5591 8.75849 54.4924 7.98412 53.7061L4.11112 49.7725Z" fill="#C54848"/>
</g>
<defs>
<clipPath id="clip0">
<rect width="42" height="60" fill="white"/>
</clipPath>
</defs>
</svg>
