<svg width="60" height="60" viewBox="0 0 60 60" fill="none" xmlns="http://www.w3.org/2000/svg">
<path d="M59.9638 44.2516C59.8144 40.8141 59.2166 37.003 58.3198 33.4161C57.4231 29.9786 56.3022 26.7653 54.9571 24.2993C49.7262 15.1078 44.0469 16.5276 37.2466 18.3211C35.0795 18.8442 32.763 19.442 30.3717 19.6662H29.6244C27.2331 19.442 24.9166 18.8442 22.7495 18.3211C15.9492 16.6024 10.2699 15.1078 5.039 24.374C3.6939 26.8401 2.49826 30.0533 1.67626 33.4908C0.779524 37.0777 0.181703 40.8889 0.0322474 44.3263C-0.117208 48.1374 0.25643 50.9024 1.07843 52.8453C1.90044 54.6388 3.09608 55.7597 4.66536 56.208C6.08519 56.5817 7.7292 56.4322 9.44794 55.6849C12.3623 54.4893 15.7251 51.9486 19.0131 48.8847C21.3296 46.6429 25.6638 45.522 29.998 45.522C34.3323 45.522 38.6665 46.6429 40.983 48.8847C44.271 51.9486 47.6338 54.4893 50.5482 55.6849C52.2669 56.3575 53.9109 56.5817 55.3307 56.208C56.8253 55.7597 58.0957 54.7135 58.9177 52.7706C59.7397 50.9024 60.1133 48.1374 59.9638 44.2516ZM56.3769 51.7244C55.9286 52.7706 55.3307 53.3684 54.5835 53.5926C53.7614 53.8168 52.7153 53.6673 51.5196 53.2189C48.9041 52.1727 45.8403 49.8562 42.8512 47.0165C40.0116 44.1769 35.0048 42.7571 29.998 42.7571C24.9913 42.7571 19.9845 44.1769 17.0702 46.8671C14.0063 49.7067 10.9425 52.098 8.40175 53.0695C7.2061 53.5178 6.15992 53.742 5.33791 53.4431C4.59064 53.2189 3.99281 52.6211 3.54445 51.5749C2.94663 50.1551 2.64772 47.8385 2.79717 44.4011C2.94663 41.1878 3.46972 37.5261 4.36645 34.0886C5.18846 30.8753 6.23465 27.8862 7.50502 25.6444C11.615 18.2464 16.3976 19.442 22.0769 20.9366C24.3935 21.5344 26.7848 22.1322 29.4002 22.3564C29.475 22.3564 29.475 22.3564 29.5497 22.3564H30.3717C30.4464 22.3564 30.4464 22.3564 30.5211 22.3564C33.2113 22.1322 35.6026 21.5344 37.9192 20.9366C37.9687 20.9242 38.0182 20.9118 38.0677 20.8994C43.6819 19.4952 48.4169 18.3109 52.4911 25.6444C53.7614 27.8862 54.8076 30.8006 55.6296 34.0886C56.4516 37.5261 57.0495 41.113 57.1989 44.4011C57.3484 47.8385 57.0495 50.1551 56.3769 51.7244Z" fill="#B00B0B"/>
<path d="M56.3769 51.7244C55.9286 52.7706 55.3307 53.3684 54.5835 53.5926C53.7614 53.8168 52.7153 53.6673 51.5196 53.2189C48.9041 52.1727 45.8403 49.8562 42.8512 47.0165C40.0116 44.1769 35.0048 42.7571 29.998 42.7571C24.9913 42.7571 19.9845 44.1769 17.0702 46.8671C14.0063 49.7067 10.9425 52.098 8.40175 53.0695C7.2061 53.5178 6.15992 53.742 5.33791 53.4431C4.59064 53.2189 3.99281 52.6211 3.54445 51.5749C2.94663 50.1551 2.64772 47.8385 2.79717 44.4011C2.94663 41.1878 3.46972 37.5261 4.36645 34.0886C5.18846 30.8753 6.23465 27.8862 7.50502 25.6444C11.615 18.2464 16.3976 19.442 22.0769 20.9366C24.3935 21.5344 26.7848 22.1322 29.4002 22.3564H29.5497H30.3717H30.5211C33.2113 22.1322 35.6026 21.5344 37.9192 20.9366L38.0677 20.8994C43.6819 19.4952 48.4169 18.3109 52.4911 25.6444C53.7614 27.8862 54.8076 30.8006 55.6296 34.0886C56.4516 37.5261 57.0495 41.113 57.1989 44.4011C57.3484 47.8385 57.0495 50.1551 56.3769 51.7244Z" fill="#B00B0B"/>
<path fill-rule="evenodd" clip-rule="evenodd" d="M20.6687 29.2652C21.5477 29.3283 22.301 29.7697 22.9288 30.3373C23.5566 30.9679 23.9961 31.9138 23.9961 32.9229C23.9961 33.9319 23.6194 34.8147 22.9288 35.5084C22.3638 36.1391 21.5477 36.5174 20.6687 36.5805C20.606 37.4634 20.1665 38.2201 19.6015 38.8508C18.9737 39.4814 18.032 39.9229 17.0275 39.9229C16.023 39.9229 15.1441 39.5445 14.4535 38.8508C13.8257 38.2832 13.449 37.4634 13.3862 36.5805C12.4445 36.5174 11.6912 36.1391 11.0634 35.5084C10.4356 34.8778 9.99609 33.9319 9.99609 32.9229C9.99609 31.9138 10.3728 31.031 11.0634 30.3373L11.1261 30.2742C11.7539 29.7066 12.5073 29.3283 13.3862 29.2652C13.449 28.3823 13.8885 27.5625 14.4535 26.9949C15.0813 26.3643 16.023 25.9229 17.0275 25.9229C18.032 25.9229 18.9109 26.3012 19.6015 26.9949L19.6643 27.058C20.2293 27.6256 20.606 28.4454 20.6687 29.2652ZM20.4176 34.2472C20.7943 34.2472 21.1082 34.121 21.3593 33.8688C21.6104 33.6165 21.736 33.3012 21.736 32.9229C21.736 32.5445 21.6104 32.2292 21.3593 31.9769C21.1082 31.7247 20.7943 31.5985 20.4176 31.5985H19.5387C18.8481 31.5985 18.3459 31.031 18.3459 30.4003C18.3459 30.2801 18.3521 30.1568 18.3583 30.0324C18.3848 29.5044 18.4122 28.9594 17.9692 28.5715C17.6706 28.3101 17.4042 28.1931 17.0275 28.1931C16.6508 28.1931 16.3369 28.3192 16.0858 28.5715C15.8347 28.8238 15.7091 29.1391 15.7091 29.5174V30.4003C15.7091 31.094 15.1441 31.5985 14.5163 31.5985C14.5163 31.5985 13.1727 31.4271 12.6956 31.9769C12.4354 32.2768 12.319 32.5445 12.319 32.9229C12.319 33.3012 12.5073 33.6165 12.6956 33.8057C12.9468 34.058 13.2607 34.1841 13.6373 34.1841H14.5163C15.2069 34.1841 15.7091 34.7517 15.7091 35.3823V36.2652C15.7091 36.6436 15.8347 36.9589 16.0858 37.2111C16.3369 37.4634 16.6508 37.5895 17.0275 37.5895C17.4042 37.5895 17.7181 37.4634 17.9692 37.2111C18.2203 36.9589 18.3459 36.6436 18.3459 36.2652V35.4454C18.3459 34.7517 18.9109 34.2472 19.5387 34.2472H20.4176Z" fill="white"/>
<path d="M42.9983 30.0542C44.4428 30.0542 45.6138 28.8832 45.6138 27.4387C45.6138 25.9942 44.4428 24.8232 42.9983 24.8232C41.5538 24.8232 40.3828 25.9942 40.3828 27.4387C40.3828 28.8832 41.5538 30.0542 42.9983 30.0542Z" fill="white"/>
<path d="M42.9983 40.6655C44.4428 40.6655 45.6138 39.4945 45.6138 38.05C45.6138 36.6056 44.4428 35.4346 42.9983 35.4346C41.5538 35.4346 40.3828 36.6056 40.3828 38.05C40.3828 39.4945 41.5538 40.6655 42.9983 40.6655Z" fill="white"/>
<path d="M37.6936 35.3589C39.1381 35.3589 40.3091 34.1879 40.3091 32.7434C40.3091 31.2989 39.1381 30.1279 37.6936 30.1279C36.2491 30.1279 35.0781 31.2989 35.0781 32.7434C35.0781 34.1879 36.2491 35.3589 37.6936 35.3589Z" fill="white"/>
<path d="M48.3088 35.3589C49.7533 35.3589 50.9243 34.1879 50.9243 32.7434C50.9243 31.2989 49.7533 30.1279 48.3088 30.1279C46.8643 30.1279 45.6934 31.2989 45.6934 32.7434C45.6934 34.1879 46.8643 35.3589 48.3088 35.3589Z" fill="white"/>
</svg>
