<svg width="60" height="60" viewBox="0 0 60 60" fill="none" xmlns="http://www.w3.org/2000/svg">
<g clip-path="url(#clip0)">
<path d="M28.2718 7.96717C29.0432 6.64264 30.9568 6.64264 31.7282 7.96718L39.2549 20.8897C39.5375 21.3749 40.011 21.7189 40.5598 21.8377L55.1757 25.0028C56.6738 25.3272 57.2651 27.147 56.2438 28.29L46.2797 39.4416C45.9055 39.8603 45.7247 40.417 45.7812 40.9756L47.2877 55.8542C47.4421 57.3792 45.894 58.5039 44.4913 57.8858L30.8065 51.8554C30.2927 51.629 29.7073 51.629 29.1935 51.8554L15.5087 57.8858C14.106 58.5039 12.5579 57.3792 12.7123 55.8542L14.2188 40.9756C14.2753 40.417 14.0945 39.8603 13.7203 39.4416L3.7562 28.29C2.73489 27.147 3.3262 25.3272 4.82431 25.0028L19.4402 21.8377C19.989 21.7189 20.4625 21.3749 20.7451 20.8896L28.2718 7.96717Z" fill="#B00B0B"/>
<path d="M33.6568 35.194C34.8124 34.2309 35.5429 32.8203 35.5429 31.251C35.5429 28.3555 33.0563 26 30 26C26.9436 26 24.4571 28.3555 24.4571 31.251C24.4571 32.8203 25.1875 34.2309 26.3431 35.194C24.3905 35.9004 23 37.6935 23 39.7885V41.1853C23 41.6352 23.385 42 23.86 42H36.14C36.6149 42 37 41.6352 37 41.1853V39.7885C36.9999 37.6935 35.6094 35.9004 33.6568 35.194ZM30 27.6294C32.108 27.6294 33.8229 29.254 33.8229 31.251C33.8229 33.248 32.1079 34.8726 30 34.8726C27.892 34.8726 26.177 33.248 26.177 31.251C26.177 29.254 27.8919 27.6294 30 27.6294ZM35.2799 40.3705H24.72V39.7884C24.72 37.9763 26.2763 36.5019 28.1892 36.5019H31.8107C33.7235 36.5019 35.2799 37.9763 35.2799 39.7884L35.2799 40.3705Z" fill="white"/>
<path d="M30 27.6294C32.108 27.6294 33.8229 29.254 33.8229 31.251C33.8229 33.248 32.1079 34.8726 30 34.8726C27.892 34.8726 26.177 33.248 26.177 31.251C26.177 29.254 27.8919 27.6294 30 27.6294Z" fill="white"/>
<path d="M35.2799 40.3705H24.72V39.7884C24.72 37.9763 26.2763 36.5019 28.1892 36.5019H31.8107C33.7235 36.5019 35.2799 37.9763 35.2799 39.7884L35.2799 40.3705Z" fill="white"/>
</g>
<defs>
<clipPath id="clip0">
<rect width="60" height="60" fill="white"/>
</clipPath>
</defs>
</svg>
