<svg width="45" height="60" viewBox="0 0 45 60" fill="none" xmlns="http://www.w3.org/2000/svg">
<g clip-path="url(#clip0)">
<path d="M10.2917 54.4663C9.70399 54.4663 9.1165 54.3135 8.59047 54.0085C7.54542 53.402 6.90234 52.2851 6.90234 51.0769V14.9237C6.90234 13.7155 7.54542 12.5985 8.59047 11.9921C9.63553 11.3856 10.9244 11.3813 11.9733 11.9808L43.6074 30.0574C44.6635 30.6607 45.3152 31.7839 45.3152 33C45.3152 34.2162 44.6635 35.3394 43.6074 35.9427L11.9733 54.0193C11.4522 54.3174 10.8717 54.4663 10.2917 54.4663Z" fill="#B00B0B"/>
<path d="M28.7342 31.5073L17.25 25.125V40.875L28.7342 34.4928C29.2851 34.1867 29.625 33.6169 29.625 33.0001C29.625 32.3832 29.2851 31.8134 28.7342 31.5073Z" fill="white"/>
</g>
<defs>
<clipPath id="clip0">
<rect width="45" height="60" fill="white"/>
</clipPath>
</defs>
</svg>
