<svg width="40" height="40" viewBox="0 0 40 40" fill="none" xmlns="http://www.w3.org/2000/svg">
<path d="M20 40C31.0457 40 40 31.0457 40 20C40 8.9543 31.0457 0 20 0C8.9543 0 0 8.9543 0 20C0 31.0457 8.9543 40 20 40Z" fill="white"/>
<path d="M25.7067 5.88281H14.2943C9.65617 5.88281 5.88281 9.65617 5.88281 14.2943V25.7067C5.88281 30.3448 9.65617 34.1181 14.2943 34.1181H25.7067C30.3448 34.1181 34.1181 30.3448 34.1181 25.7067V14.2943C34.1181 9.65617 30.3447 5.88281 25.7067 5.88281ZM31.2776 25.7067C31.2776 28.7834 28.7834 31.2776 25.7067 31.2776H14.2943C11.2175 31.2776 8.72328 28.7834 8.72328 25.7067V14.2943C8.72328 11.2175 11.2175 8.72328 14.2943 8.72328H25.7067C28.7834 8.72328 31.2776 11.2175 31.2776 14.2943V25.7067Z" fill="black"/>
<path d="M20.0002 12.9414C16.108 12.9414 12.9414 16.108 12.9414 20.0002C12.9414 23.8924 16.108 27.0591 20.0002 27.0591C23.8925 27.0591 27.0591 23.8925 27.0591 20.0002C27.0591 16.1079 23.8925 12.9414 20.0002 12.9414ZM20.0002 24.3135C17.6181 24.3135 15.687 22.3824 15.687 20.0003C15.687 17.6181 17.6181 15.687 20.0002 15.687C22.3824 15.687 24.3134 17.6181 24.3134 20.0003C24.3134 22.3823 22.3823 24.3135 20.0002 24.3135Z" fill="black"/>
<path d="M27.0593 14.1176C27.709 14.1176 28.2358 13.5909 28.2358 12.9411C28.2358 12.2914 27.709 11.7646 27.0593 11.7646C26.4095 11.7646 25.8828 12.2914 25.8828 12.9411C25.8828 13.5909 26.4095 14.1176 27.0593 14.1176Z" fill="black"/>
</svg>
