<svg width="40" height="40" viewBox="0 0 40 40" fill="none" xmlns="http://www.w3.org/2000/svg">
<path d="M20 40C31.0457 40 40 31.0457 40 20C40 8.9543 31.0457 0 20 0C8.9543 0 0 8.9543 0 20C0 31.0457 8.9543 40 20 40Z" fill="white"/>
<path d="M25.6586 6H14.3414C9.74191 6 6 9.74191 6 14.3414V25.6586C6 30.2581 9.74191 34 14.3414 34H25.6586C30.2581 34 34 30.2581 34 25.6586V14.3414C33.9999 9.74191 30.258 6 25.6586 6ZM31.1832 25.6586C31.1832 28.7097 28.7097 31.1832 25.6586 31.1832H14.3414C11.2903 31.1832 8.8168 28.7097 8.8168 25.6586V14.3414C8.8168 11.2902 11.2903 8.8168 14.3414 8.8168H25.6586C28.7097 8.8168 31.1832 11.2902 31.1832 14.3414V25.6586Z" fill="url(#paint0_linear)"/>
<path d="M19.9996 12.7588C16.0065 12.7588 12.7578 16.0075 12.7578 20.0005C12.7578 23.9936 16.0065 27.2423 19.9996 27.2423C23.9927 27.2423 27.2414 23.9937 27.2414 20.0005C27.2414 16.0074 23.9927 12.7588 19.9996 12.7588ZM19.9996 24.4256C17.5557 24.4256 15.5746 22.4445 15.5746 20.0006C15.5746 17.5567 17.5558 15.5756 19.9996 15.5756C22.4435 15.5756 24.4246 17.5567 24.4246 20.0006C24.4246 22.4444 22.4434 24.4256 19.9996 24.4256Z" fill="url(#paint1_linear)"/>
<path d="M27.2568 14.5477C28.2151 14.5477 28.9921 13.7708 28.9921 12.8124C28.9921 11.8541 28.2151 11.0771 27.2568 11.0771C26.2984 11.0771 25.5215 11.8541 25.5215 12.8124C25.5215 13.7708 26.2984 14.5477 27.2568 14.5477Z" fill="url(#paint2_linear)"/>
<defs>
<linearGradient id="paint0_linear" x1="20" y1="33.9185" x2="20" y2="6.21748" gradientUnits="userSpaceOnUse">
<stop stop-color="#E09B3D"/>
<stop offset="0.3" stop-color="#C74C4D"/>
<stop offset="0.6" stop-color="#C21975"/>
<stop offset="1" stop-color="#7024C4"/>
</linearGradient>
<linearGradient id="paint1_linear" x1="19.9996" y1="33.9191" x2="19.9996" y2="6.21807" gradientUnits="userSpaceOnUse">
<stop stop-color="#E09B3D"/>
<stop offset="0.3" stop-color="#C74C4D"/>
<stop offset="0.6" stop-color="#C21975"/>
<stop offset="1" stop-color="#7024C4"/>
</linearGradient>
<linearGradient id="paint2_linear" x1="27.2568" y1="33.9184" x2="27.2568" y2="6.21734" gradientUnits="userSpaceOnUse">
<stop stop-color="#E09B3D"/>
<stop offset="0.3" stop-color="#C74C4D"/>
<stop offset="0.6" stop-color="#C21975"/>
<stop offset="1" stop-color="#7024C4"/>
</linearGradient>
</defs>
</svg>
