<svg width="97" height="44" viewBox="0 0 97 44" fill="none" xmlns="http://www.w3.org/2000/svg">
<path d="M5.21694 18.112C4.39561 18.112 3.65961 17.9787 3.00894 17.712C2.35827 17.4453 1.83561 17.0507 1.44094 16.528C1.05694 16.0053 0.854272 15.376 0.832938 14.64H3.74494C3.78761 15.056 3.93161 15.376 4.17694 15.6C4.42227 15.8133 4.74227 15.92 5.13694 15.92C5.54227 15.92 5.86227 15.8293 6.09694 15.648C6.33161 15.456 6.44894 15.1947 6.44894 14.864C6.44894 14.5867 6.35294 14.3573 6.16094 14.176C5.97961 13.9947 5.75027 13.8453 5.47294 13.728C5.20627 13.6107 4.82227 13.4773 4.32094 13.328C3.59561 13.104 3.0036 12.88 2.54494 12.656C2.08627 12.432 1.69161 12.1013 1.36094 11.664C1.03027 11.2267 0.864938 10.656 0.864938 9.952C0.864938 8.90667 1.2436 8.09067 2.00094 7.504C2.75827 6.90667 3.74494 6.608 4.96094 6.608C6.19827 6.608 7.19561 6.90667 7.95294 7.504C8.71027 8.09067 9.11561 8.912 9.16894 9.968H6.20894C6.18761 9.60533 6.05427 9.32267 5.80894 9.12C5.56361 8.90667 5.24894 8.8 4.86494 8.8C4.53427 8.8 4.26761 8.89067 4.06494 9.072C3.86227 9.24267 3.76094 9.49333 3.76094 9.824C3.76094 10.1867 3.93161 10.4693 4.27294 10.672C4.61427 10.8747 5.14761 11.0933 5.87294 11.328C6.59827 11.5733 7.18494 11.808 7.63294 12.032C8.09161 12.256 8.48627 12.5813 8.81694 13.008C9.14761 13.4347 9.31294 13.984 9.31294 14.656C9.31294 15.296 9.14761 15.8773 8.81694 16.4C8.49694 16.9227 8.02761 17.3387 7.40894 17.648C6.79027 17.9573 6.05961 18.112 5.21694 18.112ZM10.6127 13.536C10.6127 12.608 10.7994 11.7973 11.1727 11.104C11.5567 10.4107 12.0847 9.87733 12.7567 9.504C13.4394 9.13067 14.218 8.944 15.0927 8.944C16.2127 8.944 17.146 9.23733 17.8927 9.824C18.65 10.4107 19.146 11.2373 19.3807 12.304H16.4687C16.2234 11.6213 15.7487 11.28 15.0447 11.28C14.5434 11.28 14.1434 11.4773 13.8447 11.872C13.546 12.256 13.3967 12.8107 13.3967 13.536C13.3967 14.2613 13.546 14.8213 13.8447 15.216C14.1434 15.6 14.5434 15.792 15.0447 15.792C15.7487 15.792 16.2234 15.4507 16.4687 14.768H19.3807C19.146 15.8133 18.65 16.6347 17.8927 17.232C17.1354 17.8293 16.202 18.128 15.0927 18.128C14.218 18.128 13.4394 17.9413 12.7567 17.568C12.0847 17.1947 11.5567 16.6613 11.1727 15.968C10.7994 15.2747 10.6127 14.464 10.6127 13.536ZM23.7402 10.56C24.0602 10.0693 24.4602 9.68533 24.9402 9.408C25.4202 9.12 25.9535 8.976 26.5402 8.976V11.872H25.7882C25.1055 11.872 24.5935 12.0213 24.2522 12.32C23.9109 12.608 23.7402 13.12 23.7402 13.856V18H21.0042V9.072H23.7402V10.56ZM32.0719 18.128C31.1973 18.128 30.4079 17.9413 29.7039 17.568C29.0106 17.1947 28.4613 16.6613 28.0559 15.968C27.6613 15.2747 27.4639 14.464 27.4639 13.536C27.4639 12.6187 27.6666 11.8133 28.0719 11.12C28.4773 10.416 29.0319 9.87733 29.7359 9.504C30.4399 9.13067 31.2293 8.944 32.1039 8.944C32.9786 8.944 33.7679 9.13067 34.4719 9.504C35.1759 9.87733 35.7306 10.416 36.1359 11.12C36.5413 11.8133 36.7439 12.6187 36.7439 13.536C36.7439 14.4533 36.5359 15.264 36.1199 15.968C35.7146 16.6613 35.1546 17.1947 34.4399 17.568C33.7359 17.9413 32.9466 18.128 32.0719 18.128ZM32.0719 15.76C32.5946 15.76 33.0373 15.568 33.3999 15.184C33.7733 14.8 33.9599 14.2507 33.9599 13.536C33.9599 12.8213 33.7786 12.272 33.4159 11.888C33.0639 11.504 32.6266 11.312 32.1039 11.312C31.5706 11.312 31.1279 11.504 30.7759 11.888C30.4239 12.2613 30.2479 12.8107 30.2479 13.536C30.2479 14.2507 30.4186 14.8 30.7599 15.184C31.1119 15.568 31.5493 15.76 32.0719 15.76ZM41.0914 6.16V18H38.3554V6.16H41.0914ZM45.9702 6.16V18H43.2342V6.16H45.9702ZM51.1196 13.52C51.1196 12.6027 51.2902 11.7973 51.6316 11.104C51.9836 10.4107 52.4582 9.87733 53.0556 9.504C53.6529 9.13067 54.3196 8.944 55.0556 8.944C55.6422 8.944 56.1756 9.06667 56.6556 9.312C57.1462 9.55733 57.5302 9.888 57.8076 10.304V6.16H60.5436V18H57.8076V16.72C57.5516 17.1467 57.1836 17.488 56.7036 17.744C56.2342 18 55.6849 18.128 55.0556 18.128C54.3196 18.128 53.6529 17.9413 53.0556 17.568C52.4582 17.184 51.9836 16.6453 51.6316 15.952C51.2902 15.248 51.1196 14.4373 51.1196 13.52ZM57.8076 13.536C57.8076 12.8533 57.6156 12.3147 57.2316 11.92C56.8582 11.5253 56.3996 11.328 55.8556 11.328C55.3116 11.328 54.8476 11.5253 54.4636 11.92C54.0902 12.304 53.9036 12.8373 53.9036 13.52C53.9036 14.2027 54.0902 14.7467 54.4636 15.152C54.8476 15.5467 55.3116 15.744 55.8556 15.744C56.3996 15.744 56.8582 15.5467 57.2316 15.152C57.6156 14.7573 57.8076 14.2187 57.8076 13.536ZM66.7469 18.128C65.8723 18.128 65.0829 17.9413 64.3789 17.568C63.6856 17.1947 63.1363 16.6613 62.7309 15.968C62.3363 15.2747 62.1389 14.464 62.1389 13.536C62.1389 12.6187 62.3416 11.8133 62.7469 11.12C63.1523 10.416 63.7069 9.87733 64.4109 9.504C65.1149 9.13067 65.9043 8.944 66.7789 8.944C67.6536 8.944 68.4429 9.13067 69.1469 9.504C69.8509 9.87733 70.4056 10.416 70.8109 11.12C71.2163 11.8133 71.4189 12.6187 71.4189 13.536C71.4189 14.4533 71.2109 15.264 70.7949 15.968C70.3896 16.6613 69.8296 17.1947 69.1149 17.568C68.4109 17.9413 67.6216 18.128 66.7469 18.128ZM66.7469 15.76C67.2696 15.76 67.7123 15.568 68.0749 15.184C68.4483 14.8 68.6349 14.2507 68.6349 13.536C68.6349 12.8213 68.4536 12.272 68.0909 11.888C67.7389 11.504 67.3016 11.312 66.7789 11.312C66.2456 11.312 65.8029 11.504 65.4509 11.888C65.0989 12.2613 64.9229 12.8107 64.9229 13.536C64.9229 14.2507 65.0936 14.8 65.4349 15.184C65.7869 15.568 66.2243 15.76 66.7469 15.76ZM85.8464 9.072L83.4304 18H80.4064L78.9984 12.208L77.5424 18H74.5344L72.1024 9.072H74.8384L76.1024 15.456L77.6064 9.072H80.5024L82.0224 15.424L83.2704 9.072H85.8464ZM92.4898 8.976C93.5351 8.976 94.3671 9.31733 94.9858 10C95.6151 10.672 95.9298 11.6 95.9298 12.784V18H93.2098V13.152C93.2098 12.5547 93.0551 12.0907 92.7458 11.76C92.4365 11.4293 92.0205 11.264 91.4978 11.264C90.9751 11.264 90.5591 11.4293 90.2498 11.76C89.9405 12.0907 89.7858 12.5547 89.7858 13.152V18H87.0498V9.072H89.7858V10.256C90.0631 9.86133 90.4365 9.552 90.9058 9.328C91.3751 9.09333 91.9031 8.976 92.4898 8.976Z" fill="white"/>
<path d="M47.9393 43.0607C48.5251 43.6464 49.4749 43.6464 50.0607 43.0607L59.6066 33.5147C60.1924 32.9289 60.1924 31.9792 59.6066 31.3934C59.0208 30.8076 58.0711 30.8076 57.4853 31.3934L49 39.8787L40.5147 31.3934C39.9289 30.8076 38.9792 30.8076 38.3934 31.3934C37.8076 31.9792 37.8076 32.9289 38.3934 33.5147L47.9393 43.0607ZM47.5 40V42H50.5V40H47.5Z" fill="white"/>
</svg>
